# xmcd
#
# Track frame offsets: 
#        150
#        14281
#        25461
#        44398
#        68046
#        83931
#        106219
#        131206
#        150567
#        168159
#        184855
#        200681
#
# Disc length: 2955 seconds
#
# Revision: 0
# Processed by: cddbd v1.5.2PL0 Copyright (c) Steve Scherf et al.
# Submitted via: ExactAudioCopyFreeDBPlugin 1.0
#
DISCID=9e0b890c
DTITLE=Mick Kolassa and the Taylor Made Blues Band - 149 Delta Avenue
DYEAR=2018
DGENRE=Blues
TTITLE0=I Can't Slow Down
TTITLE1=US 12 to Highway 49
TTITLE2=Alternative Man
TTITLE3=Cotton Road
TTITLE4=American Intervention
TTITLE5=Pullin Me Down
TTITLE6=Whiskey in the Mornin'
TTITLE7=I Don't Need No Doctor
TTITLE8=Miss Boss
TTITLE9=35 Miles to Empty
TTITLE10=Alternative Man Alternative
TTITLE11=The Viper
EXTD=
EXTT0=
EXTT1=
EXTT2=
EXTT3=
EXTT4=
EXTT5=
EXTT6=
EXTT7=
EXTT8=
EXTT9=
EXTT10=
EXTT11=
PLAYORDER=
